<svg xmlns="http://www.w3.org/2000/svg" id="mermaid-1584136205490" width="100%" height="100%" viewBox="-50 -10 1050 570" style="max-width:1050px"><style>#mermaid-1584136205490 .actor{stroke:#999;fill:#eee}#mermaid-1584136205490 text.actor{fill:#333;stroke:none}#mermaid-1584136205490 .actor-line{stroke:#666}#mermaid-1584136205490 .messageLine0,#mermaid-1584136205490 .messageLine1{stroke-width:1.5;stroke-dasharray:&apos;2 2&apos;;stroke:#333}#mermaid-1584136205490 #arrowhead,#mermaid-1584136205490 #sequencenumber{fill:#333}#mermaid-1584136205490 .sequenceNumber{fill:#fff}#mermaid-1584136205490 #crosshead path{fill:#333!important;stroke:#333!important}#mermaid-1584136205490 .messageText{fill:#333;stroke:none}#mermaid-1584136205490 .labelBox{stroke:#999;fill:#eee}#mermaid-1584136205490 .labelText,#mermaid-1584136205490 .loopText{fill:#333;stroke:none}#mermaid-1584136205490 .loopLine{stroke-width:2;stroke-dasharray:&apos;2 2&apos;;stroke:#999}#mermaid-1584136205490 .activation0{fill:#f4f4f4;stroke:#666}:root{--mermaid-font-family: &apos;&quot;trebuchet ms&quot;, verdana, arial&apos;;--mermaid-font-family: &quot;Comic Sans MS&quot;, &quot;Comic Sans&quot;, cursive;--mermaid-font-family: &quot;trebuchet ms&quot;, verdana, arial}</style><style>#mermaid-1584136205490{color:#000;font:16px &quot;trebuchet ms&quot;,verdana,arial}</style><g><line id="actor0" x1="75" x2="75" y1="5" y2="550" stroke="#999" stroke-width=".5" class="actor-line"/><rect width="150" height="65" x="0" y="0" fill="#eaeaea" stroke="#666" class="actor" rx="3" ry="3"/><text x="75" y="32.5" alignment-baseline="central" class="actor" dominant-baseline="central" style="text-anchor:middle;font-size:14px"><tspan x="75" dy="-7">WM Receiver</tspan></text><text x="75" y="32.5" alignment-baseline="central" class="actor" dominant-baseline="central" style="text-anchor:middle;font-size:14px"><tspan x="75" dy="7">(Website&apos;s Wallet)</tspan></text></g><g><line id="actor1" x1="275" x2="275" y1="5" y2="550" stroke="#999" stroke-width=".5" class="actor-line"/><rect width="150" height="65" x="200" y="0" fill="#eaeaea" stroke="#666" class="actor" rx="3" ry="3"/><text x="275" y="32.5" alignment-baseline="central" class="actor" dominant-baseline="central" style="text-anchor:middle;font-size:14px"><tspan x="275" dy="0">Receipt Verifier</tspan></text></g><g><line id="actor2" x1="475" x2="475" y1="5" y2="550" stroke="#999" stroke-width=".5" class="actor-line"/><rect width="150" height="65" x="400" y="0" fill="#eaeaea" stroke="#666" class="actor" rx="3" ry="3"/><text x="475" y="32.5" alignment-baseline="central" class="actor" dominant-baseline="central" style="text-anchor:middle;font-size:14px"><tspan x="475" dy="0">Web Page</tspan></text></g><g><line id="actor3" x1="675" x2="675" y1="5" y2="550" stroke="#999" stroke-width=".5" class="actor-line"/><rect width="150" height="65" x="600" y="0" fill="#eaeaea" stroke="#666" class="actor" rx="3" ry="3"/><text x="675" y="32.5" alignment-baseline="central" class="actor" dominant-baseline="central" style="text-anchor:middle;font-size:14px"><tspan x="675" dy="-7">User Agent</tspan></text><text x="675" y="32.5" alignment-baseline="central" class="actor" dominant-baseline="central" style="text-anchor:middle;font-size:14px"><tspan x="675" dy="7">(Browser)</tspan></text></g><g><line id="actor4" x1="875" x2="875" y1="5" y2="550" stroke="#999" stroke-width=".5" class="actor-line"/><rect width="150" height="65" x="800" y="0" fill="#eaeaea" stroke="#666" class="actor" rx="3" ry="3"/><text x="875" y="32.5" alignment-baseline="central" class="actor" dominant-baseline="central" style="text-anchor:middle;font-size:14px"><tspan x="875" dy="-7">WM Sender</tspan></text><text x="875" y="32.5" alignment-baseline="central" class="actor" dominant-baseline="central" style="text-anchor:middle;font-size:14px"><tspan x="875" dy="7">(User&apos;s Wallet)</tspan></text></g><defs><marker id="arrowhead" markerHeight="4" markerWidth="6" orient="auto" refX="5" refY="2"><path d="M 0,0 V 4 L6,2 Z"/></marker></defs><defs><marker id="crosshead" markerHeight="8" markerWidth="15" orient="auto" refX="16" refY="4"><path fill="#000" stroke="#000" stroke-width="1" d="M 9,2 V 6 L16,4 Z" style="stroke-dasharray:0,0"/><path fill="none" stroke="#000" stroke-width="1" d="M 0,1 L 6,7 M 6,1 L 0,7" style="stroke-dasharray:0,0"/></marker></defs><defs><marker id="sequencenumber" markerHeight="40" markerWidth="60" orient="auto" refX="15" refY="15"><circle cx="15" cy="15" r="6"/></marker></defs><g><text x="575" y="93" class="messageText" style="text-anchor:middle">[parse monetization meta tag]</text><line x1="675" x2="475" y1="100" y2="100" stroke="#000" stroke-width="2" marker-end="url(#arrowhead)" marker-start="url(#sequencenumber)" class="messageLine1" style="stroke-dasharray:3,3;fill:none"/><text x="675" y="104" class="sequenceNumber" font-family="sans-serif" font-size="12" text-anchor="middle" textLength="16">1</text></g><g><text x="675" y="128" class="messageText" style="text-anchor:middle">Calculate Rate (url)</text><path stroke="#000" stroke-width="2" marker-end="url(#arrowhead)" marker-start="url(#sequencenumber)" d="M 675,135 C 735,125 735,165 675,155" class="messageLine0" style="fill:none"/><text x="675" y="139" class="sequenceNumber" font-family="sans-serif" font-size="12" text-anchor="middle" textLength="16">2</text></g><g><text x="575" y="193" class="messageText" style="text-anchor:middle">[generate session id]</text><line x1="675" x2="475" y1="200" y2="200" stroke="#000" stroke-width="2" marker-end="url(#arrowhead)" marker-start="url(#sequencenumber)" class="messageLine1" style="stroke-dasharray:3,3;fill:none"/><text x="675" y="204" class="sequenceNumber" font-family="sans-serif" font-size="12" text-anchor="middle" textLength="16">3</text></g><g><text x="475" y="228" class="messageText" style="text-anchor:middle">Get Receiver Address &amp; Secret (paymentPointer)</text><line x1="675" x2="275" y1="235" y2="235" stroke="#000" stroke-width="2" marker-end="url(#arrowhead)" marker-start="url(#sequencenumber)" class="messageLine0" style="fill:none"/><text x="675" y="239" class="sequenceNumber" font-family="sans-serif" font-size="12" text-anchor="middle" textLength="16">4</text></g><g><text x="175" y="263" class="messageText" style="text-anchor:middle">Get Receiver Address &amp; Secret (paymentPointer, receiptSecret)</text><line x1="275" x2="75" y1="270" y2="270" stroke="#000" stroke-width="2" marker-end="url(#arrowhead)" marker-start="url(#sequencenumber)" class="messageLine0" style="fill:none"/><text x="275" y="274" class="sequenceNumber" font-family="sans-serif" font-size="12" text-anchor="middle" textLength="16">5</text></g><g><text x="775" y="323" class="messageText" style="text-anchor:middle">Send Payment (receiverAddress, amount)</text><line x1="675" x2="875" y1="330" y2="330" stroke="#000" stroke-width="2" marker-end="url(#arrowhead)" marker-start="url(#sequencenumber)" class="messageLine0" style="fill:none"/><text x="675" y="334" class="sequenceNumber" font-family="sans-serif" font-size="12" text-anchor="middle" textLength="16">6</text></g><g><rect width="10" height="103" x="870" y="332" fill="#EDF2AE" stroke="#666" class="activation0" rx="0" ry="0"/></g><g><text x="472.5" y="358" class="messageText" style="text-anchor:middle">Send Payment (amount)</text><line x1="870" x2="75" y1="365" y2="365" stroke="#000" stroke-width="2" marker-end="url(#arrowhead)" marker-start="url(#sequencenumber)" class="messageLine0" style="fill:none"/><text x="870" y="369" class="sequenceNumber" font-family="sans-serif" font-size="12" text-anchor="middle" textLength="16">7</text></g><g><rect width="10" height="33" x="70" y="367" fill="#EDF2AE" stroke="#666" class="activation0" rx="0" ry="0"/></g><g><text x="475" y="393" class="messageText" style="text-anchor:middle">Send Receipt (amount)</text><line x1="80" x2="870" y1="400" y2="400" stroke="#000" stroke-width="2" marker-end="url(#arrowhead)" marker-start="url(#sequencenumber)" class="messageLine1" style="stroke-dasharray:3,3;fill:none"/><text x="80" y="404" class="sequenceNumber" font-family="sans-serif" font-size="12" text-anchor="middle" textLength="16">8</text></g><g><text x="772.5" y="428" class="messageText" style="text-anchor:middle">Payment Sent (amount, receipt)</text><line x1="870" x2="675" y1="435" y2="435" stroke="#000" stroke-width="2" marker-end="url(#arrowhead)" marker-start="url(#sequencenumber)" class="messageLine0" style="fill:none"/><text x="870" y="439" class="sequenceNumber" font-family="sans-serif" font-size="12" text-anchor="middle" textLength="16">9</text></g><g><text x="575" y="463" class="messageText" style="text-anchor:middle">Payment Sent (sessionId, amount, receipt)</text><line x1="675" x2="475" y1="470" y2="470" stroke="#000" stroke-width="2" marker-end="url(#arrowhead)" marker-start="url(#sequencenumber)" class="messageLine0" style="fill:none"/><text x="675" y="474" class="sequenceNumber" font-family="sans-serif" font-size="12" text-anchor="middle" textLength="16">10</text></g><g><text x="375" y="523" class="messageText" style="text-anchor:middle">Verify Payment (receipt)</text><line x1="475" x2="275" y1="530" y2="530" stroke="#000" stroke-width="2" marker-end="url(#arrowhead)" marker-start="url(#sequencenumber)" class="messageLine0" style="fill:none"/><text x="475" y="534" class="sequenceNumber" font-family="sans-serif" font-size="12" text-anchor="middle" textLength="16">11</text></g><g><line x1="265" x2="485" y1="480" y2="480" class="loopLine"/><line x1="485" x2="485" y1="480" y2="540" class="loopLine"/><line x1="265" x2="485" y1="540" y2="540" class="loopLine"/><line x1="265" x2="265" y1="480" y2="540" class="loopLine"/><polygon points="265 480 315 480 315 493 306.6 500 265 500" class="labelBox"/><text x="272.5" y="495" class="labelText"><tspan x="272.5">opt</tspan></text><text x="375" y="495" class="loopText" style="text-anchor:middle"><tspan x="375">[ Confirm Payments ]</tspan></text></g><g><line x1="60" x2="890" y1="280" y2="280" class="loopLine"/><line x1="890" x2="890" y1="280" y2="550" class="loopLine"/><line x1="60" x2="890" y1="550" y2="550" class="loopLine"/><line x1="60" x2="60" y1="280" y2="550" class="loopLine"/><polygon points="60 280 110 280 110 293 101.6 300 60 300" class="labelBox"/><text x="67.5" y="295" class="labelText"><tspan x="67.5">loop</tspan></text><text x="475" y="295" class="loopText" style="text-anchor:middle"><tspan x="475">[ Streaming Micropayments (throughput possibly limited by WM Sender) ]</tspan></text></g></svg>